HIERARCHY
ROOT Hips
{
	OFFSET 0.000000 0.000000 0.000000
	CHANNELS 6 Xposition Yposition Zposition Zrotation Yrotation Xrotation 
	JOINT LowerBack
	{
		OFFSET 0.000000 0.000000 0.000000
		CHANNELS 3 Zrotation Yrotation Xrotation
		JOINT Spine
		{
			OFFSET 0.028270 2.035590 -0.193380
			CHANNELS 3 Zrotation Yrotation Xrotation
			JOINT Spine1
			{
				OFFSET 0.056720 2.048850 -0.042750
				CHANNELS 3 Zrotation Yrotation Xrotation
				JOINT Neck
				{
					OFFSET 0.000000 0.000000 0.000000
					CHANNELS 3 Zrotation Yrotation Xrotation
					JOINT Neck1
					{
						OFFSET -0.054170 1.746240 0.172020
						CHANNELS 3 Zrotation Yrotation Xrotation
						JOINT Head
						{
							OFFSET 0.104070 1.761360 -0.123970
							CHANNELS 3 Zrotation Yrotation Xrotation
							End Site
							{
								OFFSET 0.000000 0.000000 0.000000
							}
						}
					}
				}
				JOINT LeftShoulder
				{
					OFFSET 0.000000 0.000000 0.000000
					CHANNELS 3 Zrotation Yrotation Xrotation
					JOINT LeftArm
					{
						OFFSET 3.362410 1.200890 -0.311210
						CHANNELS 3 Zrotation Yrotation Xrotation
						JOINT LeftForeArm
						{
							OFFSET 4.983000 -0.000000 -0.000000
							CHANNELS 3 Zrotation Yrotation Xrotation
							JOINT LeftHand
							{
								OFFSET 3.483560 -0.000000 -0.000000
								CHANNELS 3 Zrotation Yrotation Xrotation
								JOINT LeftFingerBase
								{
									OFFSET 0.000000 0.000000 0.000000
									CHANNELS 3 Zrotation Yrotation Xrotation
									JOINT LeftHandIndex1
									{
										OFFSET 0.715260 -0.000000 -0.000000
										CHANNELS 3 Zrotation Yrotation Xrotation
										End Site
										{
											OFFSET 0.000000 0.000000 0.000000
										}
									}
								}
								JOINT LThumb
								{
									OFFSET 0.000000 0.000000 0.000000
									CHANNELS 3 Zrotation Yrotation Xrotation
									End Site
									{
										OFFSET 0.000000 0.000000 0.000000
									}
								}
							}
						}
					}
				}
				JOINT RightShoulder
				{
					OFFSET 0.000000 0.000000 0.000000
					CHANNELS 3 Zrotation Yrotation Xrotation
					JOINT RightArm
					{
						OFFSET -3.136600 1.374050 -0.404650
						CHANNELS 3 Zrotation Yrotation Xrotation
						JOINT RightForeArm
						{
							OFFSET -5.241900 -0.000000 -0.000000
							CHANNELS 3 Zrotation Yrotation Xrotation
							JOINT RightHand
							{
								OFFSET -3.444170 -0.000000 -0.000000
								CHANNELS 3 Zrotation Yrotation Xrotation
								JOINT RightFingerBase
								{
									OFFSET 0.000000 0.000000 0.000000
									CHANNELS 3 Zrotation Yrotation Xrotation
									JOINT RightHandIndex1
									{
										OFFSET -0.622530 -0.000000 -0.000000
										CHANNELS 3 Zrotation Yrotation Xrotation
										End Site
										{
											OFFSET 0.000000 0.000000 0.000000
										}
									}
								}
								JOINT RThumb
								{
									OFFSET 0.000000 0.000000 0.000000
									CHANNELS 3 Zrotation Yrotation Xrotation
									End Site
									{
										OFFSET 0.000000 0.000000 0.000000
									}
								}
							}
						}
					}
				}
			}
		}
	}
}
}
MOTION
Frames: 9
Frame Time: 0.008333
-13.245005 16.756941 -1.607852 105.763499 88.873100 127.838817 4.044867 -2.077044 4.393598 -0.217010 -2.155703 -1.838071 -7.870940 -2.201323 1.216105 8.782098 0.915290 3.743149 -5.493077 -0.437116 2.641403 0.000000 0.000000 0.000000 -6.094843 -6.212946 1.969921 -60.917386 -27.736953 18.195749 -3.481351 -32.160772 -0.011006 5.954147 -2.041195 -0.117317 -0.150052 0.178517 0.000000 0.000000 0.000000 0.000000 0.000000 0.000000 0.000000 22.237621 -3.395679 -0.201902 60.000164 8.780738 -3.529068 2.785526 29.342938 0.007438 0.591963 6.895256 0.033164 0.051823 -0.067616 -0.000000 0.000000 0.000000 0.000000 0.000000 0.000000 0.000000 
-13.083523 16.754796 -1.591189 159.855401 89.287903 -177.946588 5.201580 -2.023561 4.352685 0.020529 -2.119462 -1.855025 -7.836071 -2.171302 1.175281 8.753292 1.143746 3.790612 -5.487551 -0.436516 2.656283 0.000000 0.000000 0.000000 -6.437702 -6.061754 1.953724 -61.648504 -26.709719 18.075066 -3.439440 -31.335071 -0.010966 6.090607 -2.112923 -0.123468 -0.143787 0.172793 0.000000 0.000000 0.000000 0.000000 0.000000 0.000000 0.000000 22.115714 -3.245484 -0.220337 59.901810 8.960802 -4.029304 2.848772 28.467346 0.007706 0.403229 6.946493 0.021561 0.055608 -0.066187 -0.000000 0.000000 0.000000 0.000000 0.000000 0.000000 0.000000 
-12.924461 16.757056 -1.573122 -163.561624 89.752470 -141.245644 5.678040 -1.786025 4.393908 0.024732 -1.947336 -1.873956 -7.792766 -2.006383 1.154022 8.727986 1.412528 3.817671 -5.477958 -0.435242 2.664204 0.000000 0.000000 0.000000 -6.656581 -5.815494 1.866091 -62.417933 -25.684436 17.811091 -3.381049 -30.436416 -0.010905 6.259098 -2.171477 -0.129633 -0.137092 0.165437 0.000000 0.000000 0.000000 0.000000 0.000000 0.000000 0.000000 22.014693 -2.980779 -0.203256 59.893618 9.215121 -4.576263 2.917365 27.491501 0.007983 0.225785 6.970934 0.010563 0.059383 -0.065156 -0.000000 0.000000 0.000000 0.000000 0.000000 0.000000 0.000000 
-12.768104 16.763200 -1.552730 -151.831723 89.574564 -129.452773 6.078596 -1.748206 4.452106 0.111151 -1.931477 -1.882663 -7.721800 -1.998675 1.142187 8.781041 1.708064 3.875384 -5.449029 -0.433658 2.680053 0.000000 0.000000 0.000000 -6.778045 -5.675710 1.800697 -63.257282 -24.655911 17.427581 -3.327359 -29.434571 -0.010972 6.448773 -2.206975 -0.135093 -0.130812 0.158738 0.000000 0.000000 0.000000 0.000000 0.000000 0.000000 0.000000 21.907158 -2.751620 -0.206327 59.919644 9.500483 -5.192850 2.968703 26.449394 0.008109 0.070243 6.957260 0.000760 0.062048 -0.063440 -0.000000 0.000000 0.000000 0.000000 0.000000 0.000000 0.000000 
-12.614603 16.772480 -1.529132 -148.568738 89.268522 -126.155079 6.497092 -1.744419 4.536503 0.209138 -1.938790 -1.881635 -7.647713 -2.013340 1.125271 8.885472 2.008508 3.953915 -5.413060 -0.431849 2.701536 0.000000 0.000000 0.000000 -6.777274 -5.587371 1.736846 -64.141773 -23.597427 16.912187 -3.264672 -28.361282 -0.011118 6.644854 -2.215585 -0.139155 -0.123926 0.152119 0.000000 0.000000 0.000000 0.000000 0.000000 0.000000 0.000000 21.810413 -2.533517 -0.215198 59.998609 9.852209 -5.830763 3.018923 25.338786 0.008199 -0.071226 6.906794 -0.007944 0.064580 -0.061415 -0.000000 0.000000 0.000000 0.000000 0.000000 0.000000 0.000000 
-12.463984 16.784133 -1.501836 -148.900226 88.921469 -126.474431 6.869191 -1.757511 4.640388 0.296759 -1.957793 -1.873233 -7.572023 -2.038830 1.107928 9.041843 2.294117 4.043972 -5.371221 -0.429860 2.726323 0.000000 0.000000 0.000000 -6.655821 -5.548558 1.671263 -65.048339 -22.514309 16.290039 -3.195208 -27.243257 -0.011270 6.828788 -2.190255 -0.140920 -0.116693 0.145435 0.000000 0.000000 0.000000 0.000000 0.000000 0.000000 0.000000 21.734834 -2.337250 -0.226284 60.132283 10.276102 -6.469570 3.068041 24.174137 0.008252 -0.198412 6.819150 -0.015648 0.066991 -0.059169 -0.000000 0.000000 0.000000 0.000000 0.000000 0.000000 0.000000 
-12.316128 16.797354 -1.470819 -151.138335 88.542730 -128.718341 7.178601 -1.786955 4.752369 0.370622 -1.989525 -1.860767 -7.495977 -2.076258 1.089825 9.251564 2.584009 4.147431 -5.321690 -0.427633 2.755145 0.000000 0.000000 0.000000 -6.438148 -5.544760 1.610079 -65.946025 -21.430763 15.624226 -3.125186 -26.097203 -0.011375 6.980589 -2.118740 -0.139185 -0.109597 0.138728 0.000000 0.000000 0.000000 0.000000 0.000000 0.000000 0.000000 21.675452 -2.136021 -0.240379 60.328679 10.715358 -7.159554 3.113522 23.014634 0.008234 -0.283815 6.678687 -0.020453 0.068976 -0.056738 -0.000000 0.000000 0.000000 0.000000 0.000000 0.000000 0.000000 
-12.170865 16.811420 -1.436052 -154.578461 88.128788 -132.178589 7.414171 -1.832554 4.864141 0.429125 -2.034278 -1.845246 -7.419753 -2.125718 1.074040 9.512016 2.844612 4.255400 -5.266551 -0.425299 2.785697 0.000000 0.000000 0.000000 -6.133334 -5.592222 1.552834 -66.817408 -20.339789 14.935614 -3.057276 -24.955171 -0.011368 7.077495 -1.997753 -0.132946 -0.102802 0.131987 0.000000 0.000000 0.000000 0.000000 0.000000 0.000000 0.000000 21.640701 -1.963624 -0.256090 60.574301 11.192483 -7.838071 3.155089 21.864816 0.008158 -0.346009 6.502717 -0.023558 0.070665 -0.054213 -0.000000 0.000000 0.000000 0.000000 0.000000 0.000000 0.000000 
-12.027979 16.825730 -1.398017 -158.623477 87.669097 -136.253626 7.579216 -1.892696 4.967952 0.473699 -2.091340 -1.827878 -7.343933 -2.186409 1.063454 9.816804 3.060338 4.360722 -5.207045 -0.422907 2.816036 0.000000 0.000000 0.000000 -5.767774 -5.684894 1.500892 -67.640881 -19.255982 14.271653 -2.995895 -23.839155 -0.011210 7.097646 -1.819774 -0.121701 -0.096570 0.125233 0.000000 0.000000 0.000000 0.000000 0.000000 0.000000 0.000000 21.631248 -1.832979 -0.273392 60.858522 11.705482 -8.474103 3.192183 20.748074 0.008029 -0.388899 6.301467 -0.025364 0.072053 -0.051665 -0.000000 0.000000 0.000000 0.000000 0.000000 0.000000 0.000000 
